<?xml version="1.0" encoding="UTF-8"?><svg id="_圖層_2" xmlns="http://www.w3.org/2000/svg" viewBox="0 0 133.43 49.66"><defs><style>.cls-1{fill:none;}.cls-2{fill:#fff;}</style></defs><g id="_圖層_1-2"><path class="cls-2" d="M76.89,11.94c-1.1,1.25-2.53,1.87-4.32,1.87s-3.22-.62-4.32-1.87-1.64-2.94-1.64-5.09.54-3.81,1.63-5.03,2.53-1.83,4.32-1.83,3.23.61,4.32,1.83,1.63,2.89,1.63,5.03-.55,3.84-1.64,5.09ZM70.22,10.26c.58.84,1.37,1.26,2.36,1.26s1.79-.42,2.37-1.27.88-1.97.88-3.39-.29-2.53-.88-3.35-1.38-1.22-2.37-1.22-1.78.4-2.36,1.21-.87,1.93-.87,3.36.29,2.56.87,3.4Z"/><path class="cls-2" d="M83.48,13.57V.25h2.67v5.24h5.03V.25h2.65v13.32h-2.65v-5.77h-5.03v5.77h-2.67Z"/><path class="cls-2" d="M105.86,13.57V.25h2.95l2.27,6.24c.15.45.42,1.3.81,2.57h.09c.08-.25.21-.66.39-1.24s.32-1.02.42-1.33l2.21-6.24h2.95v13.32h-2.43v-5.55c0-.63.11-2.09.33-4.38h-.09c-.43,1.29-1.48,4.2-3.13,8.72h-1.53l-2.07-5.59-1.05-3.13h-.07c.22,2.29.33,3.74.33,4.38v5.55h-2.39Z"/><path class="cls-2" d="M125.81,13.57v-4.89L121.82.25h2.83l1.32,3.25c.68,1.73,1.07,2.71,1.16,2.94h.07c.55-1.34.95-2.31,1.2-2.94l1.32-3.25h2.78l-4.01,8.44v4.89h-2.67Z"/><path class="cls-2" d="M73.42,32.27l.21,1.79c-1.63.45-3.91,1.03-6.86,1.76l-.44-1.95c.12-.02.42-.09.9-.19v-6.21h1.67v5.85l.76-.18v-6.63h.6c.2-.21.39-.45.58-.72h-3.92v-1.74h5.22l.37-.12,1.07.79v-.09h3.59v-.91h1.95v.91h3.88v1.78h-2.14c1.09,1.01,1.87,1.9,2.34,2.69l-1.56.93c-.07-.14-.22-.38-.46-.7-2.31.11-4.76.19-7.35.26l-.12-1.69,1.71-.04c.21-.5.4-.99.56-1.46h-2.39v-1.48c-.62.89-1.32,1.73-2.09,2.53v1.41h1.9v1.76h-1.9v2.09l1.93-.46ZM70.77,23.59v-1.07h-3.97v-1.85h3.97v-1.02h2.09v1.02h3.85v-1.02h2.13v1.02h4.01v1.85h-4.01v.91h-2.13v-.91h-3.85v1.07h-2.09ZM74.37,31.83v-1.79h1.72v1.85c0,2.12-.88,3.63-2.64,4.52-.4-.46-.81-.83-1.23-1.11,1.43-.69,2.14-1.85,2.14-3.46ZM76.99,35.8v-5.68h1.65v5.68h-1.65ZM80.45,26.42h-2.44c-.08.16-.21.4-.38.72s-.29.55-.36.7c.56-.01,1.44-.03,2.64-.05-.14-.16-.36-.4-.67-.7l1.21-.67ZM81.38,34.22v.39s0,.05,0,.07.01.04.03.05l.04.04s.03.02.05.03.05,0,.07,0h.23c.13,0,.21-.03.25-.1s.07-.19.08-.38c.04-.25.05-.74.05-1.48.4.33.84.56,1.34.7-.02.42-.04.73-.05.91s-.05.43-.11.72-.15.5-.25.62-.26.23-.47.33-.45.15-.75.15h-.81c-.43,0-.79-.14-1.05-.42-.26-.26-.39-.83-.39-1.72v-4.15h1.74v4.24Z"/><path class="cls-2" d="M108.06,31.01h-5.31c1.71,1.38,3.65,2.39,5.82,3.02-.56.5-1.04,1.11-1.42,1.81-2.23-.84-4.21-2.12-5.96-3.83v4.43h-2.27v-4.34c-1.73,1.73-3.73,3.02-5.99,3.85-.41-.66-.9-1.25-1.46-1.78,2.32-.69,4.28-1.75,5.87-3.16h-5.33v-1.97h6.91v-1.05h-5.15v-7.52h12.64v7.52h-5.22v1.05h6.87v1.97ZM96.02,22.23v1.16h2.9v-1.16h-2.9ZM96.02,26.19h2.9v-1.14h-2.9v1.14ZM104.03,23.39v-1.16h-2.85v1.16h2.85ZM104.03,26.19v-1.14h-2.85v1.14h2.85Z"/><path class="cls-2" d="M126.88,21.71h6.56v2.04h-13.04v2.51c0,4.56-.63,7.94-1.9,10.14-.61-.53-1.22-.93-1.85-1.21,1.07-1.85,1.6-4.83,1.6-8.93v-4.55h6.4v-2.06h2.23v2.06ZM127.58,24.03v1.69h5.62v1.88h-5.62v1.97h4.55v6.86h-2.2v-.65h-6.38v.67h-2.09v-6.87h3.94v-5.54h2.18ZM129.94,33.91v-2.46h-6.38v2.46h6.38Z"/><path class="cls-2" d="M70.84,46.85c-.47.55-1.09.83-1.86.83s-1.38-.28-1.86-.83-.71-1.3-.71-2.24.23-1.68.7-2.22c.47-.54,1.09-.81,1.86-.81s1.39.27,1.86.81c.47.54.71,1.28.71,2.22s-.24,1.68-.71,2.24ZM67.81,46.26c.29.41.68.61,1.17.61s.88-.21,1.18-.62c.29-.41.44-.96.44-1.65s-.15-1.23-.44-1.63-.69-.6-1.18-.6-.88.2-1.17.6-.44.94-.44,1.63.15,1.24.44,1.65Z"/><path class="cls-2" d="M73.89,47.58v-5.89h.93v2.41h2.52v-2.41h.92v5.89h-.92v-2.68h-2.52v2.68h-.93Z"/><path class="cls-2" d="M83.84,47.58v-5.89h1.07l1.08,2.98c.05.14.11.35.2.62.09.27.15.46.19.58h.04c.04-.12.1-.32.19-.59.08-.27.15-.47.2-.61l1.06-2.98h1.08v5.89h-.87v-2.91c0-.32.04-.92.12-1.82h-.03c-.15.44-.65,1.83-1.49,4.16h-.58l-1.03-2.8-.46-1.36h-.04c.08,1.08.12,1.69.12,1.82v2.91h-.84Z"/><path class="cls-2" d="M92.56,47.58v-2.23l-1.77-3.66h.99l.68,1.56c.04.1.1.23.17.41s.14.33.2.48c.06.15.12.28.18.41h.03c.23-.53.41-.96.55-1.3l.69-1.56h.97l-1.77,3.66v2.23h-.93Z"/><path class="cls-2" d="M100.05,47.58v-5.89h1.07l1.08,2.98c.05.14.11.35.2.62.09.27.15.46.19.58h.04c.04-.12.1-.32.19-.59.08-.27.15-.47.2-.61l1.06-2.98h1.08v5.89h-.87v-2.91c0-.32.04-.92.12-1.82h-.03c-.15.44-.65,1.83-1.49,4.16h-.58l-1.03-2.8-.46-1.36h-.04c.08,1.08.12,1.69.12,1.82v2.91h-.84Z"/><path class="cls-2" d="M108.77,47.68c-.38,0-.69-.12-.93-.35-.24-.23-.36-.54-.36-.93,0-.47.21-.83.63-1.09.42-.25,1.09-.43,2-.54-.01-.64-.29-.96-.84-.96-.39,0-.82.15-1.27.45l-.34-.62c.6-.39,1.2-.58,1.77-.58.54,0,.94.16,1.2.48.27.32.4.78.4,1.38v2.65h-.75l-.09-.51h-.02c-.47.41-.93.61-1.4.61ZM109.05,46.96c.33,0,.68-.17,1.05-.51v-1.09c-.63.07-1.08.19-1.34.35-.27.16-.4.37-.4.63,0,.2.06.36.19.46s.29.15.5.15Z"/><path class="cls-2" d="M113.44,47.58v-4.4h.75l.08.79h.02c.16-.29.34-.51.56-.67.22-.16.45-.24.68-.24.19,0,.35.03.5.1l-.17.8c-.15-.05-.3-.07-.44-.07-.2,0-.39.08-.59.23-.19.15-.35.39-.48.71v2.74h-.91Z"/><path class="cls-2" d="M117.83,47.58v-6.38h.9v4.11h.02l1.73-2.13h1.02l-1.49,1.78,1.66,2.62h-1l-1.2-1.99-.74.86v1.13h-.9Z"/><path class="cls-2" d="M125.38,47.68c-.61,0-1.13-.21-1.54-.62s-.61-.97-.61-1.68.2-1.25.6-1.68.87-.64,1.41-.64c.57,0,1.02.19,1.33.57.31.38.47.89.47,1.53,0,.17-.02.33-.05.46h-2.85c.04.42.18.75.42.98.25.24.56.36.94.36s.71-.11,1.05-.33l.32.59c-.46.31-.95.46-1.48.46ZM124.13,44.99h2.11c0-.38-.08-.67-.25-.88-.17-.21-.41-.31-.73-.31-.29,0-.54.11-.75.32s-.34.5-.38.88Z"/><path class="cls-2" d="M130.66,47.68c-.89,0-1.34-.51-1.34-1.54v-2.23h-.64v-.69l.68-.05.1-1.22h.77v1.22h1.15v.73h-1.15v2.23c0,.53.21.8.64.8.16,0,.32-.03.48-.1l.16.68c-.33.1-.62.16-.86.16Z"/><path class="cls-1" d="M32.96,27.36c-.95.24-1.51,1.21-1.27,2.16.24.95,1.21,1.51,2.16,1.27.95-.24,1.51-1.21,1.27-2.16-.24-.95-1.21-1.51-2.16-1.27Z"/><path class="cls-1" d="M51.42,32.07c-.64-.08-1.3.03-1.92.21-.4.11-.74.29-1.05.48l-1.22,7.53c1.65.22,3.3-.56,4.72-1.47.69-.44,1.38-.94,1.84-1.62.62-.94.72-2.2.24-3.22-.47-1.02-1.5-1.77-2.61-1.9Z"/><polygon class="cls-1" points="23.2 38.82 28.05 37.21 24.85 31.92 23.2 38.82"/><path class="cls-2" d="M57.79,34.77c-.23-1.97-1.31-3.81-2.87-5.02-1.07-.83-2.38-1.38-3.73-1.41-.74-.02-1.44.14-2.09.4l.37-2.31c.18-1.12-.23-2.25-1.09-3L26.9,4.83c-1.23-1.07-3.06-1.07-4.29,0l-4.58,3.96c.89.46,1.65,1.27,2.11,2.52.36.99.4,2.11,0,3.08-.38.93-1.11,1.66-1.93,2.23-2.26,1.56-6.77,2.57-8.21-.64-.03-.06-.05-.12-.07-.18L1.13,23.44c-.86.74-1.27,1.88-1.09,3l2.5,15.47c.72,4.47,4.58,7.76,9.11,7.76h3.86c3.62,0,7.16-1.11,10.13-3.18,2.53-1.76,5.17-3.57,5.13-3.38l-.7,6.56h7.8c4.06,0,7.58-2.65,8.78-6.43,2.46.34,5.02-.2,7.21-1.4.79-.43,1.53-.95,2.15-1.6,1.36-1.44,2.01-3.5,1.78-5.47ZM16.56,35.26c-.95.24-1.91-.32-2.16-1.27-.24-.95.32-1.91,1.27-2.16.95-.24,1.91.32,2.16,1.27.24.95-.32,1.91-1.27,2.16ZM23.2,38.82l1.65-6.91,3.2,5.29-4.85,1.61ZM33.84,30.79c-.95.24-1.91-.32-2.16-1.27-.24-.95.32-1.91,1.27-2.16.95-.24,1.91.32,2.16,1.27.24.95-.32,1.91-1.27,2.16ZM53.79,37.2c-.45.69-1.14,1.18-1.84,1.62-1.42.91-3.07,1.69-4.72,1.47l1.22-7.53c.31-.2.65-.37,1.05-.48.62-.17,1.28-.29,1.92-.21,1.12.14,2.14.88,2.61,1.9.47,1.02.38,2.28-.24,3.22Z"/></g></svg>