<?xml version="1.0" encoding="UTF-8"?><svg id="_圖層_2" xmlns="http://www.w3.org/2000/svg" viewBox="0 0 57.83 45.63"><defs><style>.cls-1{fill:none;}.cls-2{fill:#2ba84a;}</style></defs><g id="_圖層_1-2"><path class="cls-1" d="M15.67,27.8c-.95.24-1.51,1.21-1.27,2.16.24.95,1.21,1.51,2.16,1.27.95-.24,1.51-1.21,1.27-2.16-.24-.95-1.21-1.51-2.16-1.27Z"/><path class="cls-1" d="M32.96,23.33c-.95.24-1.51,1.21-1.27,2.16.24.95,1.21,1.51,2.16,1.27.95-.24,1.51-1.21,1.27-2.16-.24-.95-1.21-1.51-2.16-1.27Z"/><path class="cls-1" d="M51.42,28.04c-.64-.08-1.3.03-1.92.21-.4.11-.74.29-1.05.48l-1.22,7.53c1.65.22,3.3-.56,4.72-1.47.69-.44,1.38-.94,1.84-1.62.62-.94.72-2.2.24-3.22-.47-1.02-1.5-1.77-2.61-1.9Z"/><path class="cls-2" d="M57.79,30.74c-.23-1.97-1.31-3.81-2.87-5.02-1.07-.83-2.38-1.38-3.73-1.41-.74-.02-1.44.14-2.09.4l.37-2.31c.18-1.12-.23-2.25-1.09-3L26.9.8c-1.23-1.07-3.06-1.07-4.29,0l-4.58,3.96c.89.46,1.65,1.27,2.11,2.52.36.99.4,2.11,0,3.08-.38.93-1.11,1.66-1.93,2.23-2.26,1.56-6.77,2.57-8.21-.64-.03-.06-.05-.12-.07-.18L1.13,19.41c-.86.74-1.27,1.88-1.09,3l2.5,15.47c.72,4.47,4.58,7.76,9.11,7.76h3.86c3.62,0,7.16-1.11,10.13-3.18,2.53-1.76,5.17-3.57,5.13-3.38l-.7,6.56h7.8c4.06,0,7.58-2.65,8.78-6.43,2.46.34,5.02-.2,7.21-1.4.79-.43,1.53-.95,2.15-1.6,1.36-1.44,2.01-3.5,1.78-5.47ZM16.56,31.23c-.95.24-1.91-.32-2.16-1.27-.24-.95.32-1.91,1.27-2.16.95-.24,1.91.32,2.16,1.27.24.95-.32,1.91-1.27,2.16ZM23.2,34.79l1.65-6.91,3.2,5.29-4.85,1.61ZM33.84,26.76c-.95.24-1.91-.32-2.16-1.27-.24-.95.32-1.91,1.27-2.16.95-.24,1.91.32,2.16,1.27.24.95-.32,1.91-1.27,2.16ZM53.79,33.17c-.45.69-1.14,1.18-1.84,1.62-1.42.91-3.07,1.69-4.72,1.47l1.22-7.53c.31-.2.65-.37,1.05-.48.62-.17,1.28-.29,1.92-.21,1.12.14,2.14.88,2.61,1.9.47,1.02.38,2.28-.24,3.22Z"/></g></svg>